<?xml version="1.0" encoding="utf-8"?>
<!-- Generator: Adobe Illustrator 27.0.0, SVG Export Plug-In . SVG Version: 6.00 Build 0)  -->
<svg version="1.1" id="Layer_1" xmlns="http://www.w3.org/2000/svg" xmlns:xlink="http://www.w3.org/1999/xlink" x="0px" y="0px"
	 viewBox="0 0 1000 1000" style="enable-background:new 0 0 1000 1000;" xml:space="preserve">
<style type="text/css">
	.st0{fill:#FEC20E;}
</style>
<path class="st0" d="M862.08,528.15c3.27-29.06-18.72-46.92-17.93-75c0.52-18.19,6.68-34.8-0.65-53.65
	c-7.85-20.29-28-35.21-48.04-44.05c-28.67-12.37-56.53-1.49-84.67-8.7c-2.1-0.65-57.6-14.86-57.6-14.86
	c-40.44-10.46-24.07-32.39-10.86-63.21c29.84-69.43,73.68-148.74,25.13-220.32c-3.65-5.63-8.37-11.65-13.48-16.89
	c-8.5-8.5-18.06-15.04-28.13-15.44c-8.27-0.39-16.77,3.6-24.75,14.4c-5.5,7.21-3.66,21.2-3,32.59c0.25,3.93,0.25,7.33,0,10.33
	c-2.89,23.31-8.37,46.73-16.1,68.98c-24.21,69.5-84.02,126.04-117,192c-1.44,2.75-2.88,5.63-4.19,8.37
	c-0.4,0.92-0.92,1.83-1.31,2.75c-1.04,1.96-1.97,3.81-2.88,5.7c-0.39,1.04-1.04,2.03-1.44,3.14c-0.92,1.89-1.83,3.72-2.75,5.56
	c-2.89,6.22-5.89,12.31-8.91,18.46c-0.38,0.72-0.77,1.56-1.04,2.23c-0.92,1.96-1.96,3.86-2.75,5.82c-0.52,0.98-1.05,1.76-1.44,2.8
	c-1.04,1.83-1.83,3.67-2.75,5.5c-0.4,0.86-0.78,1.7-1.17,2.56c-2.75,5.29-5.5,10.46-8.25,15.62c-0.4,0.66-0.79,1.51-1.18,2.23
	c-0.92,1.83-1.83,3.66-2.88,5.37c-0.52,0.92-0.92,1.69-1.44,2.75c-1.04,1.71-1.96,3.47-3,5.11c-0.53,0.79-0.93,1.63-1.31,2.48
	c-1.44,2.43-2.88,4.85-4.33,7.33h-0.13c-1.44,2.48-2.88,4.84-4.58,7.21c-0.39,0.85-0.91,1.56-1.44,2.28
	c-1.04,1.64-2.08,3.27-3.27,4.91c-0.52,0.85-1.05,1.71-1.71,2.48c-1.17,1.65-2.21,3.27-3.4,4.85c-0.4,0.79-0.92,1.57-1.57,2.23
	c-1.56,2.21-3.27,4.44-4.98,6.67c-18.45,23.69-40.83,44.5-70.93,61.5c-10.73,6.03-21.46,11.66-32.46,17.09l-25.65-7.78
	l-118.33,41.62c0,0-42.92,202.79,101.58,402.83c165.04-69.5,166.34-112.04,166.34-112.04l-2.88-45.86
	c37.17-24.35,54.18-36.38,94.62-55.03c0.13,0,0.25,0,0.25,0l4.85-0.72c67.93-9.43,129.56-6.09,198.15-12.63
	c45.29-4.31,107.85-18.51,109.68-69.88c0.52-15.78,1.44-20.29,14.92-29.72c4.71-3.4,7.85-6.74,10.21-10.46
	c0.25-0.32,0.52-0.65,0.65-0.92c0.4-0.66,0.79-1.31,1.04-1.97c0.27-0.38,0.54-0.85,0.79-1.3c0.27-0.54,0.52-1.31,0.91-1.9
	c0.13-0.59,0.27-1.11,0.52-1.69c0.27-0.66,0.53-1.25,0.79-1.9c0.13-0.79,0.4-1.56,0.79-2.43c0.13-0.45,0.27-0.97,0.52-1.44
	c0.25-1.37,0.65-2.95,1.06-4.46c4.83-17.99-4.2-36.77-3.29-54.71C846.11,556.55,859.85,546.34,862.08,528.15z"/>
</svg>
